# xmcd CD database file
#
# Track frame offsets:
#	150
#	11160
#	24388
#	38091
#	52363
#	67337
#	80094
#	93051
#	106026
#	119344
#	132292
#	145724
#	158130
#	171556
#	184879
#	199418
#	213504
#	227337
#	239820
#	254370
#	268796
#	282998
#	297311
#
# Disc length: 4151 seconds
#
# Revision: 0
# Processed by: cddbd v1.5.2PL0 Copyright (c) Steve Scherf et al.
# Submitted via: CDex 1.51
#
DISCID=64103517
DTITLE=Louis Armstrong  - Chimes blues  (1923-1924) Cd 02
DYEAR=2004
DGENRE=Jazz
TTITLE0=King Oliver and His Creole Jazz Band*  -  Alligator
TTITLE1=King Oliver and His Creole Jazz Band*  - Krooked Blues
TTITLE2=King Oliver's Jazz Band   -   Buddy's Habits
TTITLE3=King Oliver's Jazz Band   -   Tears
TTITLE4=King Oliver's Jazz Band   - I Ain't Gonna Tell Nobody
TTITLE5=King Oliver's Jazz Band   -   Room Rent Blues
TTITLE6=King Oliver's Jazz Band   -  Riverside Blues
TTITLE7=King Oliver's Jazz Band   -  Sweet Baby Doll
TTITLE8=King Oliver's Jazz Band   -   Working Man Blues
TTITLE9=King Oliver's Jazz Band   -   Mabel's Dream
TTITLE10=King Oliver's Jazz Band   -  Chattanooga Stomp
TTITLE11=King Oliver's Jazz Band   -   London (Cafe) Blues
TTITLE12=King Oliver's Jazz Band   -  Camp Meeting Blues
TTITLE13=King Oliver's Jazz Band   -  New Orleans Stomp
TTITLE14=Fletcher Henderson and His Orchestra*  -  Manda
TTITLE15=Fletcher Henderson and His Orchestra*  -   Go Long Mule
TTITLE16=Fletcher Henderson and His Orchestra*  -   Tell Me Dreamy Eyes
TTITLE17=Fletcher Henderson and His Orchestra*  -  My Rose Marie
TTITLE18=Fletcher Henderson and His Orchestra*  -   Shanghai Shuffle
TTITLE19="Ma" Rainey and Her Georgia Jazz Band*  -  See See Rider Blues (Take 1)
TTITLE20="Ma" Rainey and Her Georgia Jazz Band*  -  Jelly Bean Blues
TTITLE21="Ma" Rainey and Her Georgia Jazz Band*  -  Countin' The Blues (Take 1)
TTITLE22="Ma" Rainey and Her Georgia Jazz Band*  -   	Countin' The Blues (Take 2)
EXTD=YEAR: 2004
EXTT0=
EXTT1=
EXTT2=
EXTT3=
EXTT4=
EXTT5=
EXTT6=
EXTT7=
EXTT8=
EXTT9=
EXTT10=
EXTT11=
EXTT12=
EXTT13=
EXTT14=
EXTT15=
EXTT16=
EXTT17=
EXTT18=
EXTT19=
EXTT20=
EXTT21=
EXTT22=
PLAYORDER=
